<svg xmlns="http://www.w3.org/2000/svg" xmlns:xlink="http://www.w3.org/1999/xlink" width="500" zoomAndPan="magnify" viewBox="0 0 375 374.999991" height="500" preserveAspectRatio="xMidYMid meet" version="1.0"><defs><filter x="0%" y="0%" width="100%" height="100%" id="d76bff7f28"><feColorMatrix values="0 0 0 0 1 0 0 0 0 1 0 0 0 0 1 0 0 0 1 0" color-interpolation-filters="sRGB"/></filter><g/><clipPath id="875bd03d57"><path d="M 112.5 78.792969 L 262.5 78.792969 L 262.5 208.542969 L 112.5 208.542969 Z M 112.5 78.792969 " clip-rule="nonzero"/></clipPath><clipPath id="cdde077978"><path d="M 114 82 L 258 82 L 258 208.542969 L 114 208.542969 Z M 114 82 " clip-rule="nonzero"/></clipPath><clipPath id="1d60e6e243"><path d="M 117 86 L 253 86 L 253 208.542969 L 117 208.542969 Z M 117 86 " clip-rule="nonzero"/></clipPath><clipPath id="1e46124ca8"><path d="M 119 90 L 249 90 L 249 208.542969 L 119 208.542969 Z M 119 90 " clip-rule="nonzero"/></clipPath><mask id="d7522d3bc9"><g filter="url(#d76bff7f28)"><rect x="-37.5" width="450" fill="#000000" y="-37.499999" height="449.999989" fill-opacity="0.41"/></g></mask><clipPath id="77a401688d"><path d="M 0.8125 0.65625 L 41.960938 0.65625 L 41.960938 55.40625 L 0.8125 55.40625 Z M 0.8125 0.65625 " clip-rule="nonzero"/></clipPath><clipPath id="a64a8edcc5"><path d="M 0.8125 9 L 10 9 L 10 47 L 0.8125 47 Z M 0.8125 9 " clip-rule="nonzero"/></clipPath><clipPath id="62d3a6a15e"><rect x="0" width="42" y="0" height="56"/></clipPath></defs><g fill="#242424" fill-opacity="1"><g transform="translate(124.283958, 261.485973)"><g><path d="M 33.5 -9.71875 C 33.5 -6.625 32.335938 -4.226562 30.015625 -2.53125 C 27.691406 -0.84375 24.46875 0 20.34375 0 L 3.3125 0 L 3.3125 -34.0625 L 18.90625 -34.0625 C 23.0625 -34.0625 26.207031 -33.335938 28.34375 -31.890625 C 30.476562 -30.453125 31.546875 -28.320312 31.546875 -25.5 C 31.546875 -23.5625 31.007812 -21.925781 29.9375 -20.59375 C 28.863281 -19.269531 27.234375 -18.375 25.046875 -17.90625 C 27.796875 -17.582031 29.890625 -16.71875 31.328125 -15.3125 C 32.773438 -13.90625 33.5 -12.039062 33.5 -9.71875 Z M 24.359375 -24.53125 C 24.359375 -26.0625 23.867188 -27.148438 22.890625 -27.796875 C 21.921875 -28.441406 20.476562 -28.765625 18.5625 -28.765625 L 10.4375 -28.765625 L 10.4375 -20.328125 L 18.609375 -20.328125 C 20.617188 -20.328125 22.078125 -20.675781 22.984375 -21.375 C 23.898438 -22.082031 24.359375 -23.132812 24.359375 -24.53125 Z M 26.34375 -10.265625 C 26.34375 -13.460938 24.054688 -15.0625 19.484375 -15.0625 L 10.4375 -15.0625 L 10.4375 -5.296875 L 19.75 -5.296875 C 22.03125 -5.296875 23.695312 -5.707031 24.75 -6.53125 C 25.8125 -7.363281 26.34375 -8.609375 26.34375 -10.265625 Z M 26.34375 -10.265625 "/></g></g><g transform="translate(160.031271, 261.485973)"><g><path d="M 3.3125 0 L 3.3125 -34.0625 L 30.09375 -34.0625 L 30.09375 -28.546875 L 10.4375 -28.546875 L 10.4375 -19.984375 L 28.625 -19.984375 L 28.625 -14.484375 L 10.4375 -14.484375 L 10.4375 -5.515625 L 31.078125 -5.515625 L 31.078125 0 Z M 3.3125 0 "/></g></g><g transform="translate(193.047382, 261.485973)"><g><path d="M 20.078125 -13.96875 L 20.078125 0 L 12.984375 0 L 12.984375 -13.96875 L 0.84375 -34.0625 L 8.3125 -34.0625 L 16.484375 -19.65625 L 24.75 -34.0625 L 32.21875 -34.0625 Z M 20.078125 -13.96875 "/></g></g><g transform="translate(226.063493, 261.485973)"><g><path d="M 28.8125 0 L 1.46875 0 L 1.46875 -5.046875 L 19.890625 -28.46875 L 3.3125 -28.46875 L 3.3125 -34.0625 L 27.8125 -34.0625 L 27.8125 -29.09375 L 9.40625 -5.578125 L 28.8125 -5.578125 Z M 28.8125 0 "/></g></g></g><g fill="#6d6d6d" fill-opacity="1"><g transform="translate(118.897908, 302.173545)"><g><path d="M 14.671875 -4.484375 C 14.671875 -2.984375 14.082031 -1.820312 12.90625 -1 C 11.738281 -0.175781 10.085938 0.234375 7.953125 0.234375 C 3.992188 0.234375 1.703125 -1.144531 1.078125 -3.90625 L 3.203125 -4.328125 C 3.453125 -3.347656 3.972656 -2.628906 4.765625 -2.171875 C 5.566406 -1.710938 6.660156 -1.484375 8.046875 -1.484375 C 9.460938 -1.484375 10.554688 -1.726562 11.328125 -2.21875 C 12.109375 -2.707031 12.5 -3.425781 12.5 -4.375 C 12.5 -4.90625 12.375 -5.332031 12.125 -5.65625 C 11.882812 -5.988281 11.546875 -6.265625 11.109375 -6.484375 C 10.671875 -6.703125 10.144531 -6.882812 9.53125 -7.03125 C 8.925781 -7.175781 8.253906 -7.332031 7.515625 -7.5 C 6.234375 -7.78125 5.257812 -8.0625 4.59375 -8.34375 C 3.925781 -8.632812 3.398438 -8.953125 3.015625 -9.296875 C 2.640625 -9.648438 2.347656 -10.0625 2.140625 -10.53125 C 1.929688 -11 1.828125 -11.535156 1.828125 -12.140625 C 1.828125 -13.535156 2.359375 -14.609375 3.421875 -15.359375 C 4.492188 -16.117188 6.019531 -16.5 8 -16.5 C 9.851562 -16.5 11.265625 -16.210938 12.234375 -15.640625 C 13.210938 -15.078125 13.898438 -14.117188 14.296875 -12.765625 L 12.125 -12.375 C 11.882812 -13.238281 11.429688 -13.863281 10.765625 -14.25 C 10.097656 -14.632812 9.171875 -14.828125 7.984375 -14.828125 C 6.679688 -14.828125 5.6875 -14.613281 5 -14.1875 C 4.320312 -13.757812 3.984375 -13.117188 3.984375 -12.265625 C 3.984375 -11.765625 4.113281 -11.347656 4.375 -11.015625 C 4.644531 -10.691406 5.03125 -10.414062 5.53125 -10.1875 C 6.03125 -9.957031 7.023438 -9.679688 8.515625 -9.359375 C 9.015625 -9.242188 9.507812 -9.125 10 -9 C 10.5 -8.882812 10.972656 -8.742188 11.421875 -8.578125 C 11.878906 -8.410156 12.304688 -8.210938 12.703125 -7.984375 C 13.097656 -7.765625 13.441406 -7.492188 13.734375 -7.171875 C 14.023438 -6.847656 14.253906 -6.46875 14.421875 -6.03125 C 14.585938 -5.59375 14.671875 -5.078125 14.671875 -4.484375 Z M 14.671875 -4.484375 "/></g></g></g><g fill="#6d6d6d" fill-opacity="1"><g transform="translate(143.789172, 302.173545)"><g><path d="M 8.96875 -6.734375 L 8.96875 0 L 6.765625 0 L 6.765625 -6.734375 L 0.515625 -16.25 L 2.9375 -16.25 L 7.890625 -8.515625 L 12.8125 -16.25 L 15.234375 -16.25 Z M 8.96875 -6.734375 "/></g></g></g><g fill="#6d6d6d" fill-opacity="1"><g transform="translate(168.680435, 302.173545)"><g><path d="M 14.671875 -4.484375 C 14.671875 -2.984375 14.082031 -1.820312 12.90625 -1 C 11.738281 -0.175781 10.085938 0.234375 7.953125 0.234375 C 3.992188 0.234375 1.703125 -1.144531 1.078125 -3.90625 L 3.203125 -4.328125 C 3.453125 -3.347656 3.972656 -2.628906 4.765625 -2.171875 C 5.566406 -1.710938 6.660156 -1.484375 8.046875 -1.484375 C 9.460938 -1.484375 10.554688 -1.726562 11.328125 -2.21875 C 12.109375 -2.707031 12.5 -3.425781 12.5 -4.375 C 12.5 -4.90625 12.375 -5.332031 12.125 -5.65625 C 11.882812 -5.988281 11.546875 -6.265625 11.109375 -6.484375 C 10.671875 -6.703125 10.144531 -6.882812 9.53125 -7.03125 C 8.925781 -7.175781 8.253906 -7.332031 7.515625 -7.5 C 6.234375 -7.78125 5.257812 -8.0625 4.59375 -8.34375 C 3.925781 -8.632812 3.398438 -8.953125 3.015625 -9.296875 C 2.640625 -9.648438 2.347656 -10.0625 2.140625 -10.53125 C 1.929688 -11 1.828125 -11.535156 1.828125 -12.140625 C 1.828125 -13.535156 2.359375 -14.609375 3.421875 -15.359375 C 4.492188 -16.117188 6.019531 -16.5 8 -16.5 C 9.851562 -16.5 11.265625 -16.210938 12.234375 -15.640625 C 13.210938 -15.078125 13.898438 -14.117188 14.296875 -12.765625 L 12.125 -12.375 C 11.882812 -13.238281 11.429688 -13.863281 10.765625 -14.25 C 10.097656 -14.632812 9.171875 -14.828125 7.984375 -14.828125 C 6.679688 -14.828125 5.6875 -14.613281 5 -14.1875 C 4.320312 -13.757812 3.984375 -13.117188 3.984375 -12.265625 C 3.984375 -11.765625 4.113281 -11.347656 4.375 -11.015625 C 4.644531 -10.691406 5.03125 -10.414062 5.53125 -10.1875 C 6.03125 -9.957031 7.023438 -9.679688 8.515625 -9.359375 C 9.015625 -9.242188 9.507812 -9.125 10 -9 C 10.5 -8.882812 10.972656 -8.742188 11.421875 -8.578125 C 11.878906 -8.410156 12.304688 -8.210938 12.703125 -7.984375 C 13.097656 -7.765625 13.441406 -7.492188 13.734375 -7.171875 C 14.023438 -6.847656 14.253906 -6.46875 14.421875 -6.03125 C 14.585938 -5.59375 14.671875 -5.078125 14.671875 -4.484375 Z M 14.671875 -4.484375 "/></g></g></g><g fill="#6d6d6d" fill-opacity="1"><g transform="translate(193.571699, 302.173545)"><g><path d="M 8.3125 -14.453125 L 8.3125 0 L 6.109375 0 L 6.109375 -14.453125 L 0.53125 -14.453125 L 0.53125 -16.25 L 13.890625 -16.25 L 13.890625 -14.453125 Z M 8.3125 -14.453125 "/></g></g></g><g fill="#6d6d6d" fill-opacity="1"><g transform="translate(217.137028, 302.173545)"><g><path d="M 1.9375 0 L 1.9375 -16.25 L 14.265625 -16.25 L 14.265625 -14.453125 L 4.140625 -14.453125 L 4.140625 -9.234375 L 13.578125 -9.234375 L 13.578125 -7.46875 L 4.140625 -7.46875 L 4.140625 -1.796875 L 14.75 -1.796875 L 14.75 0 Z M 1.9375 0 "/></g></g></g><g fill="#6d6d6d" fill-opacity="1"><g transform="translate(242.028292, 302.173545)"><g><path d="M 15.75 0 L 15.75 -10.84375 C 15.75 -12.039062 15.785156 -13.191406 15.859375 -14.296875 C 15.484375 -12.921875 15.144531 -11.847656 14.84375 -11.078125 L 10.640625 0 L 9.109375 0 L 4.84375 -11.078125 L 4.203125 -13.03125 L 3.8125 -14.296875 L 3.859375 -13.03125 L 3.90625 -10.84375 L 3.90625 0 L 1.9375 0 L 1.9375 -16.25 L 4.828125 -16.25 L 9.15625 -4.984375 C 9.3125 -4.523438 9.457031 -4.035156 9.59375 -3.515625 C 9.738281 -3.003906 9.835938 -2.632812 9.890625 -2.40625 C 9.953125 -2.707031 10.078125 -3.171875 10.265625 -3.796875 C 10.460938 -4.421875 10.597656 -4.816406 10.671875 -4.984375 L 14.921875 -16.25 L 17.734375 -16.25 L 17.734375 0 Z M 15.75 0 "/></g></g></g><g clip-path="url(#875bd03d57)"><path stroke-linecap="round" transform="matrix(0.110779, 0, 0, 0.110729, 174.197631, 137.071426)" fill="none" stroke-linejoin="round" d="M -552.216461 640.452071 L 120.009317 -523.844933 L 792.199833 640.452071 Z M -552.216461 640.452071 " stroke="#030303" stroke-width="5" stroke-opacity="1" stroke-miterlimit="4"/><path stroke-linecap="round" transform="matrix(0.110779, 0, 0, 0.110729, 174.197631, 137.071426)" fill="none" stroke-linejoin="round" d="M -552.216461 640.452071 L 120.009317 -523.844933 L 792.199833 640.452071 Z M -552.216461 640.452071 " stroke="#030303" stroke-width="5" stroke-opacity="1" stroke-miterlimit="4"/></g><g clip-path="url(#cdde077978)"><path stroke-linecap="round" transform="matrix(0.105729, 0.00331747, -0.00331897, 0.105681, 175.640736, 137.945895)" fill="none" stroke-linejoin="round" d="M -552.225467 640.444729 L 119.99623 -523.835833 L 792.198875 640.452731 Z M -552.225467 640.444729 " stroke="#030303" stroke-width="5" stroke-opacity="1" stroke-miterlimit="4"/></g><g clip-path="url(#1d60e6e243)"><path stroke-linecap="round" transform="matrix(0.100558, 0.00632374, -0.0063266, 0.100513, 177.020719, 138.890703)" fill="none" stroke-linejoin="round" d="M -552.190594 640.461141 L 120.004475 -523.847741 L 792.215928 640.444465 Z M -552.190594 640.461141 " stroke="#030303" stroke-width="5" stroke-opacity="1" stroke-miterlimit="4"/></g><g clip-path="url(#1e46124ca8)"><path stroke-linecap="round" transform="matrix(0.0952798, 0.00900253, -0.00900659, 0.0952368, 178.33057, 139.900743)" fill="none" stroke-linejoin="round" d="M -552.19386 640.468747 L 119.98396 -523.822354 L 792.200677 640.454221 Z M -552.19386 640.468747 " stroke="#030303" stroke-width="5" stroke-opacity="1" stroke-miterlimit="4"/></g><path stroke-linecap="round" transform="matrix(0.0899085, 0.011353, -0.0113581, 0.0898679, 179.568348, 140.973639)" fill="none" stroke-linejoin="round" d="M -552.220901 640.466937 L 120.01298 -523.861445 L 792.199815 640.451036 Z M -552.220901 640.466937 " stroke="#030303" stroke-width="5" stroke-opacity="1" stroke-miterlimit="4"/><path stroke-linecap="round" transform="matrix(0.0844578, 0.0133708, -0.0133768, 0.0844197, 180.732151, 142.106928)" fill="none" stroke-linejoin="round" d="M -552.202376 640.437123 L 120.00567 -523.84953 L 792.219958 640.444297 Z M -552.202376 640.437123 " stroke="#030303" stroke-width="5" stroke-opacity="1" stroke-miterlimit="4"/><path stroke-linecap="round" transform="matrix(0.0789382, 0.0150515, -0.0150583, 0.0789025, 181.818744, 143.297158)" fill="none" stroke-linejoin="round" d="M -552.187427 640.456098 L 119.999528 -523.858982 L 792.217419 640.444906 Z M -552.187427 640.456098 " stroke="#030303" stroke-width="5" stroke-opacity="1" stroke-miterlimit="4"/><path stroke-linecap="round" transform="matrix(0.0733658, 0.0163905, -0.0163979, 0.0733327, 182.825294, 144.541632)" fill="none" stroke-linejoin="round" d="M -552.226429 640.459856 L 119.995798 -523.841014 L 792.221613 640.446825 Z M -552.226429 640.459856 " stroke="#030303" stroke-width="5" stroke-opacity="1" stroke-miterlimit="4"/><path stroke-linecap="round" transform="matrix(0.067754, 0.0173884, -0.0173963, 0.0677234, 183.751209, 145.838311)" fill="none" stroke-linejoin="round" d="M -552.211669 640.44558 L 120.023286 -523.8383 L 792.214554 640.467291 Z M -552.211669 640.44558 " stroke="#030303" stroke-width="5" stroke-opacity="1" stroke-miterlimit="4"/><path stroke-linecap="round" transform="matrix(0.0621141, 0.0180436, -0.0180517, 0.0620861, 184.595265, 147.185323)" fill="none" stroke-linejoin="round" d="M -552.205213 640.446067 L 119.984583 -523.823333 L 792.218346 640.440142 Z M -552.205213 640.446067 " stroke="#030303" stroke-width="5" stroke-opacity="1" stroke-miterlimit="4"/><path stroke-linecap="round" transform="matrix(0.0564597, 0.0183377, -0.018346, 0.0564342, 185.345882, 148.573423)" fill="none" stroke-linejoin="round" d="M -552.223592 640.443563 L 119.982596 -523.843542 L 792.22223 640.483366 Z M -552.223592 640.443563 " stroke="#030303" stroke-width="5" stroke-opacity="1" stroke-miterlimit="4"/><path stroke-linecap="round" transform="matrix(0.0508018, 0.0182815, -0.0182898, 0.0507789, 186.01007, 150.006933)" fill="none" stroke-linejoin="round" d="M -552.222795 640.465892 L 120.010568 -523.827125 L 792.229751 640.455953 Z M -552.222795 640.465892 " stroke="#030303" stroke-width="5" stroke-opacity="1" stroke-miterlimit="4"/><path stroke-linecap="round" transform="matrix(0.0451532, 0.0178693, -0.0178774, 0.0451328, 186.583747, 151.480507)" fill="none" stroke-linejoin="round" d="M -552.217264 640.482959 L 120.017558 -523.804747 L 792.241765 640.45756 Z M -552.217264 640.482959 " stroke="#030303" stroke-width="5" stroke-opacity="1" stroke-miterlimit="4"/><path stroke-linecap="round" transform="matrix(0.0395228, 0.0170955, -0.0171032, 0.0395049, 187.064642, 152.994307)" fill="none" stroke-linejoin="round" d="M -552.223232 640.469569 L 119.976949 -523.828709 L 792.236979 640.473208 Z M -552.223232 640.469569 " stroke="#030303" stroke-width="5" stroke-opacity="1" stroke-miterlimit="4"/><path stroke-linecap="round" transform="matrix(0.0339189, 0.0159538, -0.015961, 0.0339036, 187.449045, 154.545489)" fill="none" stroke-linejoin="round" d="M -552.21795 640.454487 L 119.9578 -523.839684 L 792.215555 640.465106 Z M -552.21795 640.454487 " stroke="#030303" stroke-width="5" stroke-opacity="1" stroke-miterlimit="4"/><path stroke-linecap="round" transform="matrix(0.0283452, 0.0144361, -0.0144426, 0.0283324, 187.735245, 156.132616)" fill="none" stroke-linejoin="round" d="M -552.261218 640.417726 L 120.025803 -523.848961 L 792.232051 640.452068 Z M -552.261218 640.417726 " stroke="#030303" stroke-width="5" stroke-opacity="1" stroke-miterlimit="4"/><path stroke-linecap="round" transform="matrix(0.0228062, 0.0125322, -0.0125378, 0.0227959, 187.918586, 157.758652)" fill="none" stroke-linejoin="round" d="M -552.282882 640.471697 L 119.968957 -523.857028 L 792.219394 640.389388 Z M -552.282882 640.471697 " stroke="#030303" stroke-width="5" stroke-opacity="1" stroke-miterlimit="4"/><path stroke-linecap="round" transform="matrix(0.0172904, 0.0102214, -0.010226, 0.0172826, 187.99631, 159.427694)" fill="none" stroke-linejoin="round" d="M -552.248397 640.448176 L 120.089552 -523.856144 L 792.199327 640.448903 Z M -552.248397 640.448176 " stroke="#030303" stroke-width="5" stroke-opacity="1" stroke-miterlimit="4"/><path stroke-linecap="round" transform="matrix(0.0117748, 0.00746969, -0.00747306, 0.0117694, 187.963879, 161.148124)" fill="none" stroke-linejoin="round" d="M -552.143603 640.533399 L 120.075994 -523.911959 L 792.172189 640.648146 Z M -552.143603 640.533399 " stroke="#030303" stroke-width="5" stroke-opacity="1" stroke-miterlimit="4"/><path stroke-linecap="round" transform="matrix(0.00618149, 0.00419886, -0.00420075, 0.0061787, 187.809088, 162.952196)" fill="none" stroke-linejoin="round" d="M -552.075154 640.220907 L 119.796574 -523.808518 L 792.094524 640.310503 Z M -552.075154 640.220907 " stroke="#030303" stroke-width="5" stroke-opacity="1" stroke-miterlimit="4"/><g mask="url(#d7522d3bc9)"><g transform="matrix(1, 0, 0, 1, 169, 132)"><g clip-path="url(#62d3a6a15e)"><g clip-path="url(#77a401688d)"><path fill="#3b3a3a" d="M 9.65625 55.417969 L 25.898438 55.417969 C 34.667969 55.417969 41.792969 48.292969 41.792969 39.523438 C 41.792969 30.757812 38.988281 29.179688 34.742188 26.328125 C 36.84375 23.632812 38.097656 20.261719 38.097656 16.582031 C 38.097656 7.816406 30.972656 0.691406 22.207031 0.691406 L 0.8125 0.691406 L 9.65625 9.519531 L 22.207031 9.519531 C 26.097656 9.519531 29.273438 12.691406 29.273438 16.582031 C 29.273438 20.476562 26.113281 23.648438 22.207031 23.648438 L 9.65625 23.648438 L 18.496094 32.492188 L 25.914062 32.492188 C 29.808594 32.492188 32.980469 35.664062 32.980469 39.554688 C 32.980469 43.449219 29.808594 46.621094 25.914062 46.621094 L 0.8125 46.621094 L 9.65625 55.464844 Z M 9.65625 55.417969 " fill-opacity="1" fill-rule="nonzero"/></g><g clip-path="url(#a64a8edcc5)"><path fill="#3b3a3a" d="M 9.65625 23.632812 L 9.65625 18.34375 L 0.8125 9.519531 L 0.8125 37.746094 L 9.65625 46.574219 Z M 9.65625 23.632812 " fill-opacity="1" fill-rule="nonzero"/></g></g></g></g></svg>