<svg xmlns="http://www.w3.org/2000/svg" xmlns:xlink="http://www.w3.org/1999/xlink" width="500" zoomAndPan="magnify" viewBox="0 0 375 374.999991" height="500" preserveAspectRatio="xMidYMid meet" version="1.0"><defs><filter x="0%" y="0%" width="100%" height="100%" id="d7b82ea0bf"><feColorMatrix values="0 0 0 0 1 0 0 0 0 1 0 0 0 0 1 0 0 0 1 0" color-interpolation-filters="sRGB"/></filter><g/><clipPath id="c687896784"><path d="M 112.5 78.792969 L 262.5 78.792969 L 262.5 208.542969 L 112.5 208.542969 Z M 112.5 78.792969 " clip-rule="nonzero"/></clipPath><clipPath id="415b0838d5"><path d="M 114 82 L 258 82 L 258 208.542969 L 114 208.542969 Z M 114 82 " clip-rule="nonzero"/></clipPath><clipPath id="1530f2584a"><path d="M 117 86 L 253 86 L 253 208.542969 L 117 208.542969 Z M 117 86 " clip-rule="nonzero"/></clipPath><clipPath id="4885e4e989"><path d="M 119 90 L 249 90 L 249 208.542969 L 119 208.542969 Z M 119 90 " clip-rule="nonzero"/></clipPath><mask id="b96b900fa3"><g filter="url(#d7b82ea0bf)"><rect x="-37.5" width="450" fill="#000000" y="-37.499999" height="449.999989" fill-opacity="0.41"/></g></mask><clipPath id="5790d3a600"><path d="M 0.8125 0.65625 L 41.960938 0.65625 L 41.960938 55.40625 L 0.8125 55.40625 Z M 0.8125 0.65625 " clip-rule="nonzero"/></clipPath><clipPath id="9aa444c46c"><path d="M 0.8125 9 L 10 9 L 10 47 L 0.8125 47 Z M 0.8125 9 " clip-rule="nonzero"/></clipPath><clipPath id="1a65ede8d8"><rect x="0" width="42" y="0" height="56"/></clipPath></defs><g fill="#242424" fill-opacity="1"><g transform="translate(124.283958, 261.485959)"><g><path d="M 33.5 -9.71875 C 33.5 -6.625 32.335938 -4.226562 30.015625 -2.53125 C 27.691406 -0.84375 24.46875 0 20.34375 0 L 3.3125 0 L 3.3125 -34.0625 L 18.90625 -34.0625 C 23.0625 -34.0625 26.207031 -33.335938 28.34375 -31.890625 C 30.476562 -30.453125 31.546875 -28.320312 31.546875 -25.5 C 31.546875 -23.5625 31.007812 -21.925781 29.9375 -20.59375 C 28.863281 -19.269531 27.234375 -18.375 25.046875 -17.90625 C 27.796875 -17.582031 29.890625 -16.71875 31.328125 -15.3125 C 32.773438 -13.90625 33.5 -12.039062 33.5 -9.71875 Z M 24.359375 -24.53125 C 24.359375 -26.0625 23.867188 -27.148438 22.890625 -27.796875 C 21.921875 -28.441406 20.476562 -28.765625 18.5625 -28.765625 L 10.4375 -28.765625 L 10.4375 -20.328125 L 18.609375 -20.328125 C 20.617188 -20.328125 22.078125 -20.675781 22.984375 -21.375 C 23.898438 -22.082031 24.359375 -23.132812 24.359375 -24.53125 Z M 26.34375 -10.265625 C 26.34375 -13.460938 24.054688 -15.0625 19.484375 -15.0625 L 10.4375 -15.0625 L 10.4375 -5.296875 L 19.75 -5.296875 C 22.03125 -5.296875 23.695312 -5.707031 24.75 -6.53125 C 25.8125 -7.363281 26.34375 -8.609375 26.34375 -10.265625 Z M 26.34375 -10.265625 "/></g></g><g transform="translate(160.031271, 261.485959)"><g><path d="M 3.3125 0 L 3.3125 -34.0625 L 30.09375 -34.0625 L 30.09375 -28.546875 L 10.4375 -28.546875 L 10.4375 -19.984375 L 28.625 -19.984375 L 28.625 -14.484375 L 10.4375 -14.484375 L 10.4375 -5.515625 L 31.078125 -5.515625 L 31.078125 0 Z M 3.3125 0 "/></g></g><g transform="translate(193.047382, 261.485959)"><g><path d="M 20.078125 -13.96875 L 20.078125 0 L 12.984375 0 L 12.984375 -13.96875 L 0.84375 -34.0625 L 8.3125 -34.0625 L 16.484375 -19.65625 L 24.75 -34.0625 L 32.21875 -34.0625 Z M 20.078125 -13.96875 "/></g></g><g transform="translate(226.063493, 261.485959)"><g><path d="M 28.8125 0 L 1.46875 0 L 1.46875 -5.046875 L 19.890625 -28.46875 L 3.3125 -28.46875 L 3.3125 -34.0625 L 27.8125 -34.0625 L 27.8125 -29.09375 L 9.40625 -5.578125 L 28.8125 -5.578125 Z M 28.8125 0 "/></g></g></g><g fill="#6d6d6d" fill-opacity="1"><g transform="translate(131.999469, 302.173574)"><g><path d="M 8.3125 -14.453125 L 8.3125 0 L 6.109375 0 L 6.109375 -14.453125 L 0.53125 -14.453125 L 0.53125 -16.25 L 13.890625 -16.25 L 13.890625 -14.453125 Z M 8.3125 -14.453125 "/></g></g></g><g fill="#6d6d6d" fill-opacity="1"><g transform="translate(155.564799, 302.173574)"><g><path d="M 13.421875 0 L 9.203125 -6.75 L 4.140625 -6.75 L 4.140625 0 L 1.9375 0 L 1.9375 -16.25 L 9.59375 -16.25 C 11.414062 -16.25 12.820312 -15.835938 13.8125 -15.015625 C 14.8125 -14.203125 15.3125 -13.066406 15.3125 -11.609375 C 15.3125 -10.398438 14.957031 -9.382812 14.25 -8.5625 C 13.550781 -7.738281 12.582031 -7.21875 11.34375 -7 L 15.96875 0 Z M 13.109375 -11.578125 C 13.109375 -12.523438 12.785156 -13.242188 12.140625 -13.734375 C 11.492188 -14.234375 10.566406 -14.484375 9.359375 -14.484375 L 4.140625 -14.484375 L 4.140625 -8.484375 L 9.453125 -8.484375 C 10.617188 -8.484375 11.519531 -8.753906 12.15625 -9.296875 C 12.789062 -9.835938 13.109375 -10.597656 13.109375 -11.578125 Z M 13.109375 -11.578125 "/></g></g></g><g fill="#6d6d6d" fill-opacity="1"><g transform="translate(181.75895, 302.173574)"><g><path d="M 13.46875 0 L 11.609375 -4.75 L 4.203125 -4.75 L 2.328125 0 L 0.046875 0 L 6.671875 -16.25 L 9.1875 -16.25 L 15.71875 0 Z M 7.90625 -14.59375 L 7.796875 -14.265625 C 7.609375 -13.628906 7.320312 -12.8125 6.9375 -11.8125 L 4.875 -6.46875 L 10.953125 -6.46875 L 8.859375 -11.828125 C 8.640625 -12.359375 8.425781 -12.960938 8.21875 -13.640625 Z M 7.90625 -14.59375 "/></g></g></g><g fill="#6d6d6d" fill-opacity="1"><g transform="translate(206.650213, 302.173574)"><g><path d="M 9.140625 -14.703125 C 7.335938 -14.703125 5.9375 -14.117188 4.9375 -12.953125 C 3.9375 -11.796875 3.4375 -10.210938 3.4375 -8.203125 C 3.4375 -6.210938 3.957031 -4.609375 5 -3.390625 C 6.039062 -2.179688 7.453125 -1.578125 9.234375 -1.578125 C 11.503906 -1.578125 13.210938 -2.703125 14.359375 -4.953125 L 16.15625 -4.0625 C 15.488281 -2.664062 14.550781 -1.597656 13.34375 -0.859375 C 12.132812 -0.128906 10.726562 0.234375 9.125 0.234375 C 7.488281 0.234375 6.070312 -0.101562 4.875 -0.78125 C 3.675781 -1.46875 2.765625 -2.441406 2.140625 -3.703125 C 1.515625 -4.972656 1.203125 -6.472656 1.203125 -8.203125 C 1.203125 -10.796875 1.898438 -12.828125 3.296875 -14.296875 C 4.703125 -15.765625 6.640625 -16.5 9.109375 -16.5 C 10.835938 -16.5 12.28125 -16.160156 13.4375 -15.484375 C 14.601562 -14.804688 15.460938 -13.800781 16.015625 -12.46875 L 13.921875 -11.78125 C 13.546875 -12.726562 12.941406 -13.453125 12.109375 -13.953125 C 11.273438 -14.453125 10.285156 -14.703125 9.140625 -14.703125 Z M 9.140625 -14.703125 "/></g></g></g><g fill="#6d6d6d" fill-opacity="1"><g transform="translate(232.844364, 302.173574)"><g><path d="M 12.765625 0 L 6.265625 -7.84375 L 4.140625 -6.234375 L 4.140625 0 L 1.9375 0 L 1.9375 -16.25 L 4.140625 -16.25 L 4.140625 -8.109375 L 11.96875 -16.25 L 14.5625 -16.25 L 7.640625 -9.1875 L 15.5 0 Z M 12.765625 0 "/></g></g></g><g clip-path="url(#c687896784)"><path stroke-linecap="round" transform="matrix(0.110779, 0, 0, 0.110729, 174.197631, 137.071426)" fill="none" stroke-linejoin="round" d="M -552.216461 640.452071 L 120.009317 -523.844933 L 792.199833 640.452071 Z M -552.216461 640.452071 " stroke="#030303" stroke-width="5" stroke-opacity="1" stroke-miterlimit="4"/><path stroke-linecap="round" transform="matrix(0.110779, 0, 0, 0.110729, 174.197631, 137.071426)" fill="none" stroke-linejoin="round" d="M -552.216461 640.452071 L 120.009317 -523.844933 L 792.199833 640.452071 Z M -552.216461 640.452071 " stroke="#030303" stroke-width="5" stroke-opacity="1" stroke-miterlimit="4"/></g><g clip-path="url(#415b0838d5)"><path stroke-linecap="round" transform="matrix(0.105729, 0.00331747, -0.00331897, 0.105681, 175.640736, 137.945909)" fill="none" stroke-linejoin="round" d="M -552.225472 640.444593 L 119.996225 -523.83597 L 792.198871 640.452595 Z M -552.225472 640.444593 " stroke="#030303" stroke-width="5" stroke-opacity="1" stroke-miterlimit="4"/></g><g clip-path="url(#1530f2584a)"><path stroke-linecap="round" transform="matrix(0.100558, 0.00632374, -0.0063266, 0.100513, 177.020719, 138.890703)" fill="none" stroke-linejoin="round" d="M -552.190594 640.461141 L 120.004475 -523.847741 L 792.215928 640.444465 Z M -552.190594 640.461141 " stroke="#030303" stroke-width="5" stroke-opacity="1" stroke-miterlimit="4"/></g><g clip-path="url(#4885e4e989)"><path stroke-linecap="round" transform="matrix(0.0952798, 0.00900253, -0.00900659, 0.0952368, 178.33057, 139.900757)" fill="none" stroke-linejoin="round" d="M -552.193874 640.468597 L 119.983945 -523.822504 L 792.200663 640.454071 Z M -552.193874 640.468597 " stroke="#030303" stroke-width="5" stroke-opacity="1" stroke-miterlimit="4"/></g><path stroke-linecap="round" transform="matrix(0.0899085, 0.011353, -0.0113581, 0.0898679, 179.568348, 140.973653)" fill="none" stroke-linejoin="round" d="M -552.220921 640.46678 L 120.01296 -523.861603 L 792.199795 640.450878 Z M -552.220921 640.46678 " stroke="#030303" stroke-width="5" stroke-opacity="1" stroke-miterlimit="4"/><path stroke-linecap="round" transform="matrix(0.0844578, 0.0133708, -0.0133768, 0.0844197, 180.732151, 142.106943)" fill="none" stroke-linejoin="round" d="M -552.202403 640.436957 L 120.005643 -523.849697 L 792.219931 640.444131 Z M -552.202403 640.436957 " stroke="#030303" stroke-width="5" stroke-opacity="1" stroke-miterlimit="4"/><path stroke-linecap="round" transform="matrix(0.0789382, 0.0150515, -0.0150583, 0.0789025, 181.818744, 143.297158)" fill="none" stroke-linejoin="round" d="M -552.187427 640.456098 L 119.999528 -523.858982 L 792.217419 640.444906 Z M -552.187427 640.456098 " stroke="#030303" stroke-width="5" stroke-opacity="1" stroke-miterlimit="4"/><path stroke-linecap="round" transform="matrix(0.0733658, 0.0163905, -0.0163979, 0.0733327, 182.825294, 144.541632)" fill="none" stroke-linejoin="round" d="M -552.226429 640.459856 L 119.995798 -523.841014 L 792.221613 640.446825 Z M -552.226429 640.459856 " stroke="#030303" stroke-width="5" stroke-opacity="1" stroke-miterlimit="4"/><path stroke-linecap="round" transform="matrix(0.067754, 0.0173884, -0.0173963, 0.0677234, 183.751209, 145.838326)" fill="none" stroke-linejoin="round" d="M -552.21172 640.445381 L 120.023235 -523.8385 L 792.214503 640.467091 Z M -552.21172 640.445381 " stroke="#030303" stroke-width="5" stroke-opacity="1" stroke-miterlimit="4"/><path stroke-linecap="round" transform="matrix(0.0621141, 0.0180436, -0.0180517, 0.0620861, 184.595265, 147.185323)" fill="none" stroke-linejoin="round" d="M -552.205213 640.446067 L 119.984583 -523.823333 L 792.218346 640.440142 Z M -552.205213 640.446067 " stroke="#030303" stroke-width="5" stroke-opacity="1" stroke-miterlimit="4"/><path stroke-linecap="round" transform="matrix(0.0564597, 0.0183377, -0.018346, 0.0564342, 185.345882, 148.573437)" fill="none" stroke-linejoin="round" d="M -552.223667 640.443332 L 119.982521 -523.843773 L 792.222155 640.483136 Z M -552.223667 640.443332 " stroke="#030303" stroke-width="5" stroke-opacity="1" stroke-miterlimit="4"/><path stroke-linecap="round" transform="matrix(0.0508018, 0.0182815, -0.0182898, 0.0507789, 186.01007, 150.006933)" fill="none" stroke-linejoin="round" d="M -552.222795 640.465892 L 120.010568 -523.827125 L 792.229751 640.455953 Z M -552.222795 640.465892 " stroke="#030303" stroke-width="5" stroke-opacity="1" stroke-miterlimit="4"/><path stroke-linecap="round" transform="matrix(0.0451532, 0.0178693, -0.0178774, 0.0451328, 186.583747, 151.480507)" fill="none" stroke-linejoin="round" d="M -552.217264 640.482959 L 120.017558 -523.804747 L 792.241765 640.45756 Z M -552.217264 640.482959 " stroke="#030303" stroke-width="5" stroke-opacity="1" stroke-miterlimit="4"/><path stroke-linecap="round" transform="matrix(0.0395228, 0.0170955, -0.0171032, 0.0395049, 187.064642, 152.994321)" fill="none" stroke-linejoin="round" d="M -552.223364 640.469262 L 119.976816 -523.829016 L 792.236846 640.472901 Z M -552.223364 640.469262 " stroke="#030303" stroke-width="5" stroke-opacity="1" stroke-miterlimit="4"/><path stroke-linecap="round" transform="matrix(0.0339189, 0.0159538, -0.015961, 0.0339036, 187.449045, 154.545489)" fill="none" stroke-linejoin="round" d="M -552.21795 640.454487 L 119.9578 -523.839684 L 792.215555 640.465106 Z M -552.21795 640.454487 " stroke="#030303" stroke-width="5" stroke-opacity="1" stroke-miterlimit="4"/><path stroke-linecap="round" transform="matrix(0.0283452, 0.0144361, -0.0144426, 0.0283324, 187.735245, 156.132616)" fill="none" stroke-linejoin="round" d="M -552.261218 640.417726 L 120.025803 -523.848961 L 792.232051 640.452068 Z M -552.261218 640.417726 " stroke="#030303" stroke-width="5" stroke-opacity="1" stroke-miterlimit="4"/><path stroke-linecap="round" transform="matrix(0.0228062, 0.0125322, -0.0125378, 0.0227959, 187.918586, 157.758652)" fill="none" stroke-linejoin="round" d="M -552.282882 640.471697 L 119.968957 -523.857028 L 792.219394 640.389388 Z M -552.282882 640.471697 " stroke="#030303" stroke-width="5" stroke-opacity="1" stroke-miterlimit="4"/><path stroke-linecap="round" transform="matrix(0.0172904, 0.0102214, -0.010226, 0.0172826, 187.99631, 159.427694)" fill="none" stroke-linejoin="round" d="M -552.248397 640.448176 L 120.089552 -523.856144 L 792.199327 640.448903 Z M -552.248397 640.448176 " stroke="#030303" stroke-width="5" stroke-opacity="1" stroke-miterlimit="4"/><path stroke-linecap="round" transform="matrix(0.0117748, 0.00746969, -0.00747306, 0.0117694, 187.963879, 161.148124)" fill="none" stroke-linejoin="round" d="M -552.143603 640.533399 L 120.075994 -523.911959 L 792.172189 640.648146 Z M -552.143603 640.533399 " stroke="#030303" stroke-width="5" stroke-opacity="1" stroke-miterlimit="4"/><path stroke-linecap="round" transform="matrix(0.00618149, 0.00419886, -0.00420075, 0.0061787, 187.809088, 162.952211)" fill="none" stroke-linejoin="round" d="M -552.076237 640.219312 L 119.795491 -523.810112 L 792.09344 640.308908 Z M -552.076237 640.219312 " stroke="#030303" stroke-width="5" stroke-opacity="1" stroke-miterlimit="4"/><g mask="url(#b96b900fa3)"><g transform="matrix(1, 0, 0, 1, 169, 132)"><g clip-path="url(#1a65ede8d8)"><g clip-path="url(#5790d3a600)"><path fill="#3b3a3a" d="M 9.65625 55.417969 L 25.898438 55.417969 C 34.667969 55.417969 41.792969 48.292969 41.792969 39.523438 C 41.792969 30.757812 38.988281 29.179688 34.742188 26.328125 C 36.84375 23.632812 38.097656 20.261719 38.097656 16.582031 C 38.097656 7.816406 30.972656 0.691406 22.207031 0.691406 L 0.8125 0.691406 L 9.65625 9.519531 L 22.207031 9.519531 C 26.097656 9.519531 29.273438 12.691406 29.273438 16.582031 C 29.273438 20.476562 26.113281 23.648438 22.207031 23.648438 L 9.65625 23.648438 L 18.496094 32.492188 L 25.914062 32.492188 C 29.808594 32.492188 32.980469 35.664062 32.980469 39.554688 C 32.980469 43.449219 29.808594 46.621094 25.914062 46.621094 L 0.8125 46.621094 L 9.65625 55.464844 Z M 9.65625 55.417969 " fill-opacity="1" fill-rule="nonzero"/></g><g clip-path="url(#9aa444c46c)"><path fill="#3b3a3a" d="M 9.65625 23.632812 L 9.65625 18.34375 L 0.8125 9.519531 L 0.8125 37.746094 L 9.65625 46.574219 Z M 9.65625 23.632812 " fill-opacity="1" fill-rule="nonzero"/></g></g></g></g></svg>